Coordinates
version=1
nRows=13
nColumns=36
inDegrees=yes

Units are S.I. units (second, meters, Newtons, ...)
If the header above contains a line with 'inDegrees', this indicates whether rotational values are in degrees (yes) or radians (no).

endheader
time	pelvis_tilt	pelvis_list	pelvis_rotation	pelvis_tx	pelvis_ty	pelvis_tz	hip_flexion_r	hip_adduction_r	hip_rotation_r	knee_angle_r	knee_angle_r_beta	ankle_angle_r	subtalar_angle_r	mtp_angle_r	hip_flexion_l	hip_adduction_l	hip_rotation_l	knee_angle_l	knee_angle_l_beta	ankle_angle_l	subtalar_angle_l	mtp_angle_l	lumbar_extension	lumbar_bending	lumbar_rotation	arm_flex_r	arm_add_r	arm_rot_r	elbow_flex_r	pro_sup_r	arm_flex_l	arm_add_l	arm_rot_l	elbow_flex_l	pro_sup_l
      0.00000000	      1.15033225	      5.25077636	      1.09204209	     -0.10180706	      0.92633681	      0.23095205	      6.17165924	     -0.24216421	     -2.44312936	     13.24901025	      0.23123885	      9.65884276	      5.79197062	     -8.71548121	     10.80581904	     -0.08723367	     -5.09127284	     14.57839262	      0.25444095	      4.64341105	      5.11850594	     -8.71548121	     -8.01548046	      0.54350868	     -7.42129235	     33.50337978	      7.58043341	     61.28637585	    130.52847247	    109.41212391	     29.81844720	      8.44169740	     54.25870784	    129.76914312	    106.16292965
      0.01666670	      0.81255152	      6.34060225	      0.75318140	     -0.10033953	      0.92402778	      0.23164100	      6.40944750	     -1.26358365	     -0.46962094	     12.42234054	      0.21681074	     11.47756027	      5.77637078	     -8.42029913	     10.43725413	      1.04190780	     -4.82474768	     13.56206833	      0.23670275	      3.56614973	      7.56686984	     -8.42029913	     -6.54056416	     -0.33522938	     -6.55266384	     33.92566165	      7.16777010	     61.93145476	    131.94019733	    105.80139726	     30.98254177	      7.84551454	     54.83619206	    130.62106662	    102.27987555
      0.03333330	     -0.80308448	      6.69230389	      0.64014846	     -0.10083918	      0.92285624	      0.23147570	      7.79675125	     -1.51320646	     -0.68380688	     11.85200053	      0.20685643	     10.57759215	      4.45944745	     -8.25135621	     12.25391800	      1.59145466	     -5.01264685	     13.37644166	      0.23346295	      2.60554037	      7.97296527	     -8.25135621	     -4.73761381	     -0.84372615	     -5.28537290	     31.86839054	      6.78074742	     63.93989937	    132.98260687	    102.85475206	     30.67976457	      7.87027382	     56.01210850	    131.24270045	     98.71113157
      0.05000000	     -1.16104908	      6.83820954	      0.63756201	     -0.10015679	      0.92331302	      0.23247593	      8.09461879	     -1.59059425	     -0.22332544	     11.71290904	      0.20442883	     10.62363614	      4.68006538	     -8.21695994	     12.83257788	      2.07019279	     -5.09967226	     13.47413419	      0.23516801	      1.65549485	      8.01133864	     -8.21695994	     -4.07725615	     -1.20618335	     -4.93215924	     30.55287727	      6.91697597	     65.07529569	    132.45419949	    101.55531416	     30.63764398	      7.90179207	     56.25679129	    130.78235755	     97.49696941
      0.06666670	     -1.64669714	      6.89969723	      0.44560159	     -0.10139583	      0.92205208	      0.23189720	      8.79834836	     -1.65817018	      0.15485560	     11.79188791	      0.20580727	     10.53937041	      5.00819792	     -8.13428555	     13.55777277	      2.48617567	     -5.64154392	     13.35610006	      0.23310792	      0.77043467	      8.48634755	     -8.13428555	     -3.93845296	     -1.17344662	     -4.07839867	     29.67181546	      6.67167817	     67.66269692	    132.51335727	    100.04734337	     31.00037795	      8.23985313	     58.16200296	    130.58127393	     95.01577248
      0.08333330	     -1.79163588	      6.74805632	      0.15572033	     -0.09951961	      0.92143662	      0.23270602	      9.11414180	     -1.53971423	      0.35515394	     11.88220880	      0.20738367	      9.63016499	      4.74999838	     -8.00749309	     13.81610537	      2.76137915	     -5.63507287	     13.25428243	      0.23133087	      0.61899688	      9.36699290	     -8.00749309	     -3.65402590	     -1.00236133	     -3.67697728	     29.08048672	      6.43973870	     68.44633434	    132.49827077	    101.40704346	     31.22697366	      8.45034285	     59.09287578	    130.14482710	     89.91660115
      0.10000000	     -1.87465506	      6.53286642	     -0.00967593	     -0.10119978	      0.92380194	      0.23264591	      9.36168624	     -1.43498352	      0.42521293	     11.61384108	      0.20269977	      8.59836355	      4.75845385	     -8.00171283	     14.08301345	      3.01229216	     -5.52865608	     12.99232964	      0.22675893	      0.28055512	      9.98148619	     -8.00171283	     -3.46832518	     -0.67347519	     -3.56366961	     28.98426398	      6.32583706	     69.06853909	    132.26889399	    101.32685289	     31.23615274	      8.60651702	     59.43294951	    130.05727762	     89.74401418
      0.11666670	     -2.05781115	      6.44349423	     -0.04381686	     -0.10344922	      0.92511082	      0.23181273	      9.66533356	     -1.37321712	      1.13914665	     11.15821303	      0.19474756	      7.93732555	      4.58967918	     -7.95354919	     14.74282543	      3.41358123	     -5.57063357	     12.95645133	      0.22613274	      0.63338947	     10.55477190	     -7.95354919	     -3.44584220	     -0.61980524	     -3.65172421	     29.26512409	      6.03388770	     69.60265984	    132.27244166	     99.56992068	     31.37621290	      8.63801214	     60.09429568	    130.05081704	     87.81197698
      0.13333330	     -2.09520843	      6.45838480	      0.14425320	     -0.10467065	      0.92753573	      0.23047388	      9.74907182	     -1.53886454	      1.40695748	     10.67808871	      0.18636781	      7.68818190	      4.78044545	     -7.95168217	     15.19550644	      3.95566394	     -5.44806991	     12.78621030	      0.22316147	      0.67067639	     10.75714439	     -7.95168217	     -3.53076040	     -0.58692731	     -3.62278295	     29.68976248	      5.91141082	     69.52776544	    132.35965250	     99.52286031	     31.43691982	      8.75611322	     60.23679181	    130.19260341	     87.71454796
      0.15000000	     -1.98505920	      6.47237072	      0.22859211	     -0.10605043	      0.92813202	      0.23084539	      9.56301841	     -1.60466656	      1.53127893	     10.12726778	      0.17675417	      7.20933837	      4.78644595	     -7.92972078	     15.41808147	      4.43894255	     -5.09578700	     12.48662307	      0.21793269	      1.05999099	     11.53644596	     -7.92972078	     -3.88212411	     -0.63048545	     -3.58777597	     30.15929863	      5.90886962	     69.65891742	    132.52661122	     98.58678714	     31.75075197	      8.89423847	     61.10840388	    130.49828620	     86.43601937
      0.16666670	     -1.89843074	      6.70718051	      0.12657677	     -0.10638177	      0.92535255	      0.23194913	      9.54081812	     -1.81097517	      1.62995342	     10.10065503	      0.17628969	      7.32597828	      4.78144452	     -7.92800866	     15.76607715	      5.07442300	     -4.65481047	     12.51262563	      0.21838652	      1.37763660	     11.85275014	     -7.92800866	     -4.13097028	     -0.95080761	     -3.50842359	     30.38712545	      5.81434472	     69.51973344	    132.55698206	     98.53962121	     31.75591068	      8.79806565	     61.14362684	    130.55560320	     86.30901723
      0.18333330	     -1.67128226	      7.06587909	     -0.01339442	     -0.10739912	      0.92443006	      0.23220561	      9.29763622	     -2.04789977	      1.20137717	     10.34299409	      0.18051930	      7.97940201	      4.76151786	     -7.85294866	     15.98705989	      5.81691750	     -4.43848364	     12.64627643	      0.22071916	      2.08304518	     12.58342665	     -7.85294866	     -4.49456645	     -1.50505688	     -3.28677297	     30.58955614	      5.81579520	     69.30616773	    132.73397368	     95.22785712	     32.02079759	      8.81979527	     61.78964552	    130.56693678	     82.97608224
      0.20000000	     -1.64333866	      7.48259924	     -0.28480625	     -0.10756445	      0.92334529	      0.23270443	      9.33660488	     -2.35240740	      0.97896788	     10.66493634	      0.18613825	      8.67497806	      4.52576864	     -7.82560502	     16.38013447	      6.58942626	     -4.08948031	     12.75897347	      0.22268610	      2.57760571	     13.07250780	     -7.82560502	     -4.39161340	     -2.09948991	     -3.12753744	     30.61661946	      6.03813659	     69.12912825	    132.78907982	     94.12969946	     32.00777687	      8.77921639	     61.82371725	    130.68076450	     81.49307376
